<svg width="55" height="46" viewBox="0 0 55 46" fill="none" xmlns="http://www.w3.org/2000/svg">
<rect width="55" height="46" rx="6" fill="#E6E0E9"/>
<path fill-rule="evenodd" clip-rule="evenodd" d="M23.0474 14H36.689C38.2486 14 39.5 15.2312 39.5 16.7368V29.2632C39.5 30.7688 38.2486 32 36.689 32H23.0474C22.0995 32 21.292 31.536 20.7637 30.7706L15.5 22.9955L20.7686 15.2133C21.2905 14.4573 22.0992 14 23.0474 14ZM37.5168 16.7366C37.5168 16.2649 37.1403 15.8945 36.6901 15.8945H23.0485C22.7999 15.8945 22.5964 16.0096 22.4311 16.2489L17.8638 22.9953L17.5156 22.481V23.5096L17.8638 22.9953L22.4263 29.7346C22.6003 29.9866 22.8062 30.105 23.0485 30.105H36.6901C37.1403 30.105 37.5168 29.7346 37.5168 29.2629V16.7366Z" fill="#49454F"/>
<path fill-rule="evenodd" clip-rule="evenodd" d="M34.0465 26.0128L32.7344 27.2639L29.41 24.0941L26.0856 27.2639L24.7734 26.0128L28.0978 22.8429L24.7734 19.673L26.0856 18.4219L29.41 21.5918L32.7344 18.4219L34.0465 19.673L30.7221 22.8429L34.0465 26.0128Z" fill="#49454F"/>
</svg>
