<svg width="412" height="36" viewBox="0 0 412 36" fill="none" xmlns="http://www.w3.org/2000/svg">
<rect x="152" y="22" width="108" height="4" rx="2" fill="#1D1B20"/>
<path fill-rule="evenodd" clip-rule="evenodd" d="M380.857 5H378.571V7.22222H380.857V5ZM374 5H376.286V7.22222H374V5ZM386.571 13.8889H377.429V15H386.571V13.8889ZM383.143 5H385.429V7.22222H383.143V5ZM380.857 9.44444H378.571V11.6667H380.857V9.44444ZM374 9.44444H376.286V11.6667H374V9.44444ZM385.429 9.44444H383.143V11.6667H385.429V9.44444ZM387.714 5H390V7.22222H387.714V5ZM390 9.44444H387.714V11.6667H390V9.44444Z" fill="#1D1B20"/>
<path d="M29.9999 13.6749L24.4082 8.09154L25.5915 6.9082L29.9999 11.3249L34.4082 6.9082L35.5915 8.09154L29.9999 13.6749Z" fill="#1D1B20"/>
</svg>
