<svg width="34" height="46" viewBox="0 0 34 46" fill="none" xmlns="http://www.w3.org/2000/svg">
<rect width="34" height="46" rx="6" fill="#F7F2FA"/>
<path d="M17 33C15.6333 33 14.3417 32.7375 13.125 32.2125C11.9083 31.6875 10.8458 30.9708 9.9375 30.0625C9.02917 29.1542 8.3125 28.0917 7.7875 26.875C7.2625 25.6583 7 24.3667 7 23C7 21.6167 7.2625 20.3208 7.7875 19.1125C8.3125 17.9042 9.02917 16.8458 9.9375 15.9375C10.8458 15.0292 11.9083 14.3125 13.125 13.7875C14.3417 13.2625 15.6333 13 17 13C18.3833 13 19.6792 13.2625 20.8875 13.7875C22.0958 14.3125 23.1542 15.0292 24.0625 15.9375C24.9708 16.8458 25.6875 17.9042 26.2125 19.1125C26.7375 20.3208 27 21.6167 27 23C27 24.3667 26.7375 25.6583 26.2125 26.875C25.6875 28.0917 24.9708 29.1542 24.0625 30.0625C23.1542 30.9708 22.0958 31.6875 20.8875 32.2125C19.6792 32.7375 18.3833 33 17 33ZM17 30.95C17.4333 30.35 17.8083 29.725 18.125 29.075C18.4417 28.425 18.7 27.7333 18.9 27H15.1C15.3 27.7333 15.5583 28.425 15.875 29.075C16.1917 29.725 16.5667 30.35 17 30.95ZM14.4 30.55C14.1 30 13.8375 29.4292 13.6125 28.8375C13.3875 28.2458 13.2 27.6333 13.05 27H10.1C10.5833 27.8333 11.1875 28.5583 11.9125 29.175C12.6375 29.7917 13.4667 30.25 14.4 30.55ZM19.6 30.55C20.5333 30.25 21.3625 29.7917 22.0875 29.175C22.8125 28.5583 23.4167 27.8333 23.9 27H20.95C20.8 27.6333 20.6125 28.2458 20.3875 28.8375C20.1625 29.4292 19.9 30 19.6 30.55ZM9.25 25H12.65C12.6 24.6667 12.5625 24.3375 12.5375 24.0125C12.5125 23.6875 12.5 23.35 12.5 23C12.5 22.65 12.5125 22.3125 12.5375 21.9875C12.5625 21.6625 12.6 21.3333 12.65 21H9.25C9.16667 21.3333 9.10417 21.6625 9.0625 21.9875C9.02083 22.3125 9 22.65 9 23C9 23.35 9.02083 23.6875 9.0625 24.0125C9.10417 24.3375 9.16667 24.6667 9.25 25ZM14.65 25H19.35C19.4 24.6667 19.4375 24.3375 19.4625 24.0125C19.4875 23.6875 19.5 23.35 19.5 23C19.5 22.65 19.4875 22.3125 19.4625 21.9875C19.4375 21.6625 19.4 21.3333 19.35 21H14.65C14.6 21.3333 14.5625 21.6625 14.5375 21.9875C14.5125 22.3125 14.5 22.65 14.5 23C14.5 23.35 14.5125 23.6875 14.5375 24.0125C14.5625 24.3375 14.6 24.6667 14.65 25ZM21.35 25H24.75C24.8333 24.6667 24.8958 24.3375 24.9375 24.0125C24.9792 23.6875 25 23.35 25 23C25 22.65 24.9792 22.3125 24.9375 21.9875C24.8958 21.6625 24.8333 21.3333 24.75 21H21.35C21.4 21.3333 21.4375 21.6625 21.4625 21.9875C21.4875 22.3125 21.5 22.65 21.5 23C21.5 23.35 21.4875 23.6875 21.4625 24.0125C21.4375 24.3375 21.4 24.6667 21.35 25ZM20.95 19H23.9C23.4167 18.1667 22.8125 17.4417 22.0875 16.825C21.3625 16.2083 20.5333 15.75 19.6 15.45C19.9 16 20.1625 16.5708 20.3875 17.1625C20.6125 17.7542 20.8 18.3667 20.95 19ZM15.1 19H18.9C18.7 18.2667 18.4417 17.575 18.125 16.925C17.8083 16.275 17.4333 15.65 17 15.05C16.5667 15.65 16.1917 16.275 15.875 16.925C15.5583 17.575 15.3 18.2667 15.1 19ZM10.1 19H13.05C13.2 18.3667 13.3875 17.7542 13.6125 17.1625C13.8375 16.5708 14.1 16 14.4 15.45C13.4667 15.75 12.6375 16.2083 11.9125 16.825C11.1875 17.4417 10.5833 18.1667 10.1 19Z" fill="#1D1B20"/>
</svg>
